{"title":"Just Go With It 2011 TS XViD - IMAGiNE","uid":6220022,"size":1420259107,"categoryP":"video","categoryS":"movies","magnet":"?xt=urn:btih:698759bd6da6842dc02fb10c5c62a9400bb48cf9&amp;dn=Just+Go+With+It+2011+TS+XViD+-+IMAGiNE&amp;tr=udp%3A%2F%2Ftracker.openbittorrent.com%3A80&amp;tr=udp%3A%2F%2Fopen.demonii.com%3A1337&amp;tr=udp%3A%2F%2Ftracker.coppersurfer.tk%3A6969&amp;tr=udp%3A%2F%2Fexodus.desync.com%3A6969","seeders":0,"leechers":1,"uploader":"hiest","files":-1,"time":1299298707,"description":"#### ##     ##    ###     ######   #### ##    ## ######## \n ##  ###   ###   ## ##   ##    ##   ##  ###   ## ##       \n ##  #### ####  ##   ##  ##         ##  ####  ## ##       \n ##  ## ### ## ##     ## ##   ####  ##  ## ## ## ######   \n ##  ##     ## ######### ##    ##   ##  ##  #### ##       \n ##  ##     ## ##     ## ##    ##   ##  ##   ### ##       \n#### ##     ## ##     ##  ######   #### ##    ## ######## \n\n\n                           Another Fine Release Brought to you from - IMAGiNE                   \n                                                 \n\n*********************************************************************************                               \n                    Just Go With It 2011 TS XViD - IMAGiNE\n*********************************************************************************\n\n\n\nRipper ...........:IMAGiNE                                        IMRating.......:6.1/10                             \nVideo Codec.......:XVID                                            Date......:03/03/11\nAudio Codec.......:MP3                                             Date......:02/11/11\nAudio Bitrate.....:128                                            Runtime...........:1h 49mn\nSubtitles.........:NIL                                            Language..........:ENGLISH\nResolution........:720 x 320                                      URL..........:http://www.imdb.com/title/tt1564367/\n\n\n\n\nVideo\nID                               : 0\nFormat                           : MPEG-4 Visual\nFormat profile                   : Advanced Simple@L5\nFormat settings, BVOP            : Yes\nFormat settings, QPel            : No\nFormat settings, GMC             : No warppoints\nFormat settings, Matrix          : Default (MPEG)\nMuxing mode                      : Packed bitstream\nCodec ID                         : XVID\nCodec ID/Hint                    : XviD\nDuration                         : 1h 49mn\nBit rate                         : 1 569 Kbps\nWidth                            : 720 pixels\nHeight                           : 320 pixels\nDisplay aspect ratio             : 2.25:1\nFrame rate                       : 25.000 fps\nColor space                      : YUV\nChroma subsampling               : 4:2:0\nBit depth                        : 8 bits\nScan type                        : Progressive\nBits/(Pixel*Frame)               : 0.272\nStream size                      : 1.20 GiB (92%)\nWriting library                  : XviD 61\n\nAudio\nID                               : 1\nFormat                           : MPEG Audio\nFormat version                   : Version 1\nFormat profile                   : Layer 3\nCodec ID                         : 55\nCodec ID/Hint                    : MP3\nDuration                         : 1h 49mn\nBit rate mode                    : Constant\nBit rate                         : 128 Kbps\nChannel(s)                       : 2 channels\nSampling rate                    : 44.1 KHz\nVideo delay                      : 4ms\nStream size                      : 100 MiB (7%)\nAlignment                        : Split accross interleaves\nInterleave, duration             : 40 ms (1.00 video frame)\nInterleave, preload duration     : 500 ms\n\n\n\nVIDEO: TaRiQ786...Thanks :P\nAUDIO: thanks matey :P\n\n\nIMAGiNE bringing you another release..........\n\nHere we are with a nice TS of Just Go With It for you all to enjoy. First of all thanks to our\nmate TaRiQ786 for the source files...  With this one we needed to do some cropping\nand rotating, we also made a script up to adjust the whate balance, gamma,\nbrightness, colors and ran a denoise and a sharpening filter. Turned out nice.Now \nthe audio we just sync our very nice Line to our encode...:P\n\n\n\nAnyway enjoy folks ....:P\n\n\n\nFLAWL3SS,ViSiON,FUSiON,Rx,SecretMyth,BirdFlu,ELEKTRI4KA,Serenity and Autotron\nAnd to all the other p2p grps past and present \n\n\n\n\n\n================================== &lt;a href=&quot;\nhttp://thepiratebay.se/user/hiest&quot; rel=&quot;nofollow&quot; target=&quot;_NEW&quot;&gt;\nhttp://thepiratebay.se/user/hiest&lt;/a&gt;\n==================================\n\n\n\n\n\nScreenshots:\n &lt;a href=&quot;\nhttp://www.grinshare.com/img/YNBI1R.png&quot; rel=&quot;nofollow&quot; target=&quot;_NEW&quot;&gt;\nhttp://www.grinshare.com/img/YNBI1R.png&lt;/a&gt;\n &lt;a href=&quot;\nhttp://www.grinshare.com/img/L70U0O.png&quot; rel=&quot;nofollow&quot; target=&quot;_NEW&quot;&gt;\nhttp://www.grinshare.com/img/L70U0O.png&lt;/a&gt;\n &lt;a href=&quot;\nhttp://www.grinshare.com/img/G9OONZ.png&quot; rel=&quot;nofollow&quot; target=&quot;_NEW&quot;&gt;\nhttp://www.grinshare.com/img/G9OONZ.png&lt;/a&gt;\n &lt;a href=&quot;\nhttp://www.grinshare.com/img/QB2G7F.png&quot; rel=&quot;nofollow&quot; target=&quot;_NEW&quot;&gt;\nhttp://www.grinshare.com/img/QB2G7F.png&lt;/a&gt;\n &lt;a href=&quot;\nhttp://www.grinshare.com/img/2LLGU0.png&quot; rel=&quot;nofollow&quot; target=&quot;_NEW&quot;&gt;\nhttp://www.grinshare.com/img/2LLGU0.png&lt;/a&gt;\n &lt;a href=&quot;\nhttp://www.grinshare.com/img/OFXAWT.png&quot; rel=&quot;nofollow&quot; target=&quot;_NEW&quot;&gt;\nhttp://www.grinshare.com/img/OFXAWT.png&lt;/a&gt;\n\n\n#### ##     ##    ###     ######   #### ##    ## ######## \n ##  ###   ###   ## ##   ##    ##   ##  ###   ## ##       \n ##  #### ####  ##   ##  ##         ##  ####  ## ##       \n ##  ## ### ## ##     ## ##   ####  ##  ## ## ## ######   \n ##  ##     ## ######### ##    ##   ##  ##  #### ##       \n ##  ##     ## ##     ## ##    ##   ##  ##   ### ##       \n#### ##     ## ##     ##  ######   #### ##    ## ######## \n","torrent":{"xt":"urn:btih:698759bd6da6842dc02fb10c5c62a9400bb48cf9","amp;dn":"Just+Go+With+It+2011+TS+XViD+-+IMAGiNE","amp;tr":["udp%3A%2F%2Ftracker.openbittorrent.com%3A80","udp%3A%2F%2Fopen.demonii.com%3A1337","udp%3A%2F%2Ftracker.coppersurfer.tk%3A6969","udp%3A%2F%2Fexodus.desync.com%3A6969"],"infoHash":"698759bd6da6842dc02fb10c5c62a9400bb48cf9","infoHashBuffer":{"type":"Buffer","data":[105,135,89,189,109,166,132,45,192,47,177,12,92,98,169,64,11,180,140,249]},"announce":[],"urlList":[]}}